<svg width="463" height="365" viewBox="0 0 463 365" fill="none" xmlns="http://www.w3.org/2000/svg">
<style>@media (prefers-color-scheme: dark){path{fill:#fff}}@media (prefers-color-scheme: light){path{fill:#000}}</style>
<path d="M31 139.25L6.625 155.125H5.875C5.04167 155.125 4.20833 154.917 3.375 154.5C2.625 154.083 2.25 153.375 2.25 152.375C2.25 151.708 2.41667 151.125 2.75 150.625C3.16667 150.042 3.66667 149.542 4.25 149.125C4.91667 148.625 6.125 147.875 7.875 146.875C9.625 145.875 11.4583 144.792 13.375 143.625C15.2917 142.375 17.125 141.25 18.875 140.25C20.7083 139.25 21.9583 138.542 22.625 138.125C22.9583 137.792 23.4583 137.417 24.125 137C24.7917 136.5 25.375 136.042 25.875 135.625C26.4583 135.125 26.9583 134.708 27.375 134.375C27.7917 134.042 28 133.833 28 133.75L18.375 114.25C17.9583 113.667 17.7083 113.208 17.625 112.875C17.625 112.458 17.625 111.917 17.625 111.25C17.625 108.75 18.8333 107.5 21.25 107.5C21.5833 107.5 22.3333 107.75 23.5 108.25C24.75 108.667 26.25 109.292 28 110.125C29.75 110.875 31.5833 111.708 33.5 112.625C35.4167 113.542 37.1667 114.375 38.75 115.125C40.3333 115.875 41.6667 116.542 42.75 117.125C43.8333 117.625 44.375 117.875 44.375 117.875L55.5 106.375C55.75 105.375 56.4583 104.167 57.625 102.75C58.875 101.333 60.1667 99.8333 61.5 98.25C62.8333 96.6667 64 95.0833 65 93.5C66 91.8333 66.5 90.3333 66.5 89V88.625L57.875 68.5C57.0417 66.5833 56.5 64.5417 56.25 62.375C56.0833 60.125 56 57.9167 56 55.75C56 53.9167 56.2917 52.0833 56.875 50.25C57.4583 48.3333 58.2917 46.625 59.375 45.125C60.5417 43.625 61.9167 42.4167 63.5 41.5C65.0833 40.5 66.9583 40 69.125 40C71.375 40 73.2083 40.6667 74.625 42C76.125 43.25 77.2917 44.8333 78.125 46.75C79.0417 48.6667 79.6667 50.7083 80 52.875C80.3333 54.9583 80.5 56.875 80.5 58.625C80.5 63.625 79.9167 68.4167 78.75 73C77.6667 77.5 76.1667 82.125 74.25 86.875V88.625C76.1667 92.2083 78.125 95.9167 80.125 99.75C82.125 103.583 83.9167 107.583 85.5 111.75C87.0833 115.833 88.375 119.958 89.375 124.125C90.375 128.208 90.875 132.333 90.875 136.5C90.875 139.75 90.3333 142.792 89.25 145.625C88.25 148.375 86.7917 150.792 84.875 152.875C82.9583 154.958 80.625 156.583 77.875 157.75C75.2083 158.917 72.2083 159.5 68.875 159.5C65.125 159.5 61.5417 158.958 58.125 157.875C54.7917 156.708 51.5417 155.208 48.375 153.375C45.2917 151.458 42.3333 149.292 39.5 146.875C36.75 144.458 34.1667 141.917 31.75 139.25H31ZM37.25 135C37.25 135.083 37.4583 135.375 37.875 135.875C38.375 136.375 38.9167 136.958 39.5 137.625C40.1667 138.208 40.8333 138.833 41.5 139.5C42.1667 140.167 42.75 140.708 43.25 141.125C43.5 141.375 43.9167 141.75 44.5 142.25C45.1667 142.667 45.7917 143.167 46.375 143.75C47.0417 144.25 47.625 144.75 48.125 145.25C48.7083 145.667 49.0833 145.917 49.25 146C49.75 146.25 50.5 146.667 51.5 147.25C52.5 147.833 53.5 148.417 54.5 149C55.5 149.583 56.4583 150.125 57.375 150.625C58.2917 151.125 58.8333 151.417 59 151.5C60.9167 152.333 62.6667 152.875 64.25 153.125C65.9167 153.292 67.5833 153.375 69.25 153.375C71.75 153.375 73.875 152.917 75.625 152C77.4583 151 78.9583 149.708 80.125 148.125C81.2917 146.458 82.125 144.583 82.625 142.5C83.2083 140.333 83.5 138.167 83.5 136C83.5 133.667 83.2917 131.25 82.875 128.75C82.5417 126.25 81.9583 123.875 81.125 121.625L70.25 95.5L60.375 109.375L37.25 134.5V135ZM27.5 118.5C27.5 118.667 27.5417 119 27.625 119.5C27.7917 119.917 27.9167 120.208 28 120.375C28.3333 120.958 28.75 121.75 29.25 122.75C29.8333 123.75 30.375 124.708 30.875 125.625C31.4583 126.458 31.9167 127.25 32.25 128C32.6667 128.667 32.9167 129 33 129H33.5C33.75 129 34.25 128.667 35 128C35.75 127.25 36.5417 126.5 37.375 125.75C38.2083 124.917 38.9583 124.167 39.625 123.5C40.2917 122.75 40.6667 122.333 40.75 122.25L40.125 121.625L29.25 118.5H27.5ZM62.625 55.625C62.625 60.2917 63.3333 64.5417 64.75 68.375C66.1667 72.125 67.9583 76.0417 70.125 80.125C70.5417 79.875 70.9167 79.375 71.25 78.625C71.5833 77.7917 71.875 76.9167 72.125 76C72.375 75 72.5833 74.0833 72.75 73.25C72.9167 72.4167 73.0417 71.9167 73.125 71.75C73.125 71.5833 73.1667 71.1667 73.25 70.5C73.4167 69.8333 73.5417 69.0833 73.625 68.25C73.7083 67.3333 73.7917 66.4583 73.875 65.625C74.0417 64.7917 74.1667 64.1667 74.25 63.75V63.375C74.25 63.0417 74.2083 62 74.125 60.25C74.125 58.5 74 56.625 73.75 54.625C73.5 52.5417 73.0417 50.7083 72.375 49.125C71.7083 47.4583 70.7083 46.625 69.375 46.625C68.0417 46.625 66.9167 46.875 66 47.375C65.0833 47.875 64.375 48.5417 63.875 49.375C63.4583 50.2083 63.125 51.1667 62.875 52.25C62.7083 53.3333 62.625 54.4583 62.625 55.625ZM95 157.5L99.25 132.5V129L101.75 112.375C102 112.042 102.458 111.875 103.125 111.875C103.792 111.792 104.25 111.75 104.5 111.75C105.167 111.75 105.917 112 106.75 112.5C107.667 112.917 108.125 113.5 108.125 114.25V122.75C108.458 122.5 109.042 122 109.875 121.25C110.708 120.5 111.583 119.708 112.5 118.875C113.5 118.042 114.417 117.25 115.25 116.5C116.083 115.75 116.625 115.208 116.875 114.875C117.792 114.042 118.875 113.333 120.125 112.75C121.458 112.167 122.708 111.875 123.875 111.875C126.292 111.875 128.167 112.625 129.5 114.125C130.917 115.625 131.625 117.542 131.625 119.875C131.625 120.042 131.583 120.167 131.5 120.25C131.5 120.25 131.5 120.333 131.5 120.5V121L126.75 142.375V152.5C129.333 152.5 132 152 134.75 151C137.583 149.917 140.292 148.583 142.875 147C145.458 145.417 147.875 143.625 150.125 141.625C152.375 139.542 154.333 137.542 156 135.625H156.5C157.083 135.625 157.542 135.833 157.875 136.25C158.292 136.583 158.5 137.042 158.5 137.625C158.5 139.458 157.875 141.292 156.625 143.125C155.458 144.875 153.917 146.542 152 148.125C150.167 149.708 148 151.208 145.5 152.625C143.083 154.042 140.667 155.25 138.25 156.25C135.917 157.25 133.625 158.042 131.375 158.625C129.125 159.208 127.208 159.5 125.625 159.5C124.042 159.5 122.792 159.208 121.875 158.625C120.958 158.042 120.25 157.292 119.75 156.375C119.333 155.375 119.042 154.292 118.875 153.125C118.792 151.958 118.75 150.708 118.75 149.375V147.75L123.625 123.5V119.375C121.625 119.375 119.625 120.25 117.625 122C115.708 123.75 113.958 125.875 112.375 128.375C110.875 130.875 109.542 133.417 108.375 136C107.292 138.583 106.5 140.708 106 142.375C105.833 142.958 105.583 144 105.25 145.5C104.917 147 104.583 148.583 104.25 150.25C104 151.917 103.75 153.5 103.5 155C103.25 156.5 103.083 157.583 103 158.25C103.083 158.75 102.917 159.125 102.5 159.375C102.167 159.625 101.75 159.833 101.25 160C100.75 160.083 100.208 160.125 99.625 160.125C99.125 160.125 98.7083 160.125 98.375 160.125C97.625 160.125 96.875 160 96.125 159.75C95.375 159.5 95 158.875 95 157.875V157.5ZM153.5 140.5C153.667 140 153.917 139.125 154.25 137.875C154.667 136.542 155.042 135.125 155.375 133.625C155.792 132.125 156.125 130.708 156.375 129.375C156.708 127.958 156.958 127 157.125 126.5C157.625 124.5 158.208 122.333 158.875 120C159.625 117.667 160.625 115.5 161.875 113.5C163.125 111.5 164.708 109.875 166.625 108.625C168.625 107.292 171.083 106.625 174 106.625C175.083 106.625 175.833 107.042 176.25 107.875C176.75 108.625 177.167 109.458 177.5 110.375C177.5 110.708 177.5 111.333 177.5 112.25C177.583 113.083 177.625 113.667 177.625 114C177.625 117.583 177.25 120.75 176.5 123.5C175.833 126.25 174.75 128.792 173.25 131.125C171.833 133.458 170.083 135.667 168 137.75C165.917 139.75 163.542 141.875 160.875 144.125C160.792 144.375 160.667 144.792 160.5 145.375C160.333 145.958 160.25 146.375 160.25 146.625V146.875C160.25 148.375 160.5 149.583 161 150.5C161.5 151.417 162.167 152.167 163 152.75C163.917 153.25 164.917 153.583 166 153.75C167.167 153.833 168.417 153.875 169.75 153.875C173.667 153.875 177.417 153.333 181 152.25C184.583 151.167 187.875 149.417 190.875 147C191.292 146.583 191.792 146 192.375 145.25C193.042 144.417 193.708 143.583 194.375 142.75C195.042 141.917 195.75 141.208 196.5 140.625C197.25 139.958 198.042 139.625 198.875 139.625C199.708 139.625 200.208 139.958 200.375 140.625C200.542 141.292 200.625 141.958 200.625 142.625C200.625 144.458 200.042 146.208 198.875 147.875C197.792 149.458 196.333 150.917 194.5 152.25C192.75 153.5 190.708 154.625 188.375 155.625C186.125 156.625 183.875 157.458 181.625 158.125C179.375 158.792 177.208 159.292 175.125 159.625C173.125 159.958 171.417 160.125 170 160.125C165.583 160.125 161.875 159.417 158.875 158C155.958 156.5 153.958 153.542 152.875 149.125L153.5 140.5ZM171.375 115.875C169.708 117.375 168.375 118.75 167.375 120C166.458 121.167 165.708 122.417 165.125 123.75C164.625 125 164.167 126.375 163.75 127.875C163.417 129.375 163.042 131.125 162.625 133.125C164.208 131.875 165.5 130.625 166.5 129.375C167.583 128.125 168.458 126.833 169.125 125.5C169.792 124.167 170.292 122.75 170.625 121.25C170.958 119.667 171.208 117.875 171.375 115.875ZM226.375 131.875C226.208 131.542 225.917 131.083 225.5 130.5C225.167 129.833 224.75 129.5 224.25 129.5C222.667 129.5 221.042 130.208 219.375 131.625C217.792 132.958 216.25 134.583 214.75 136.5C213.333 138.333 212.083 140.208 211 142.125C210 144.042 209.375 145.542 209.125 146.625C208.792 147.708 208.625 149 208.625 150.5C208.625 152 208.5 153.417 208.25 154.75C208.083 156.083 207.625 157.208 206.875 158.125C206.208 159.042 205 159.5 203.25 159.5C202.167 159.5 201.417 159.292 201 158.875C200.667 158.375 200.5 157.583 200.5 156.5C201.083 152.5 201.583 149.208 202 146.625C202.5 144.042 202.917 141.792 203.25 139.875C203.667 137.875 204.042 135.958 204.375 134.125C204.792 132.208 205.25 129.917 205.75 127.25C206.25 124.583 206.792 121.333 207.375 117.5C207.958 113.583 208.667 108.625 209.5 102.625C209.5 101.375 209.583 99.625 209.75 97.375C209.917 95.0417 210.208 92.5833 210.625 90C211.125 87.3333 211.75 84.6667 212.5 82C213.25 79.25 214.167 76.7917 215.25 74.625C216.417 72.4583 217.75 70.7083 219.25 69.375C220.75 67.9583 222.5 67.25 224.5 67.25C225.917 67.25 227.042 67.75 227.875 68.75C228.792 69.6667 229.458 70.7917 229.875 72.125C230.375 73.4583 230.667 74.875 230.75 76.375C230.833 77.7917 230.875 78.9583 230.875 79.875C230.875 81.9583 230.708 83.9583 230.375 85.875C230.042 87.7083 229.625 89.5833 229.125 91.5C228.625 93.3333 228.083 95.2083 227.5 97.125C226.917 98.9583 226.417 100.792 226 102.625L218 117.875L213.5 127.625L214.125 129C215.875 126.917 217.667 125.333 219.5 124.25C221.333 123.083 223.625 122.417 226.375 122.25C227.625 122.167 228.667 122.542 229.5 123.375C230.417 124.208 231.167 125.292 231.75 126.625C232.333 127.875 232.75 129.167 233 130.5C233.333 131.833 233.542 132.917 233.625 133.75C233.625 134.25 233.583 135.042 233.5 136.125C233.417 137.208 233.333 138.458 233.25 139.875C233.167 141.292 233.083 142.792 233 144.375C233 145.875 233.083 147.292 233.25 148.625C233.417 149.958 233.75 151.125 234.25 152.125C234.833 153.042 235.583 153.583 236.5 153.75C239.75 153.333 242.625 152.792 245.125 152.125C247.708 151.375 249.958 150.375 251.875 149.125C253.792 147.792 255.375 146.125 256.625 144.125C257.958 142.125 258.958 139.667 259.625 136.75C260.208 135.917 261.042 135.5 262.125 135.5C263.375 135.5 264.167 135.958 264.5 136.875C264.917 137.792 265.125 138.792 265.125 139.875C265.125 143.208 264.042 146.167 261.875 148.75C259.792 151.25 257.125 153.333 253.875 155C250.625 156.667 247.125 157.958 243.375 158.875C239.625 159.708 236.167 160.125 233 160.125C231 160.125 229.625 159.458 228.875 158.125C228.125 156.708 227.667 155.042 227.5 153.125C227.417 151.125 227.417 149.125 227.5 147.125C227.583 145.125 227.583 143.5 227.5 142.25C227.5 141.833 227.458 141.167 227.375 140.25C227.292 139.25 227.167 138.208 227 137.125C226.917 136.042 226.792 135 226.625 134C226.458 133 226.375 132.292 226.375 131.875ZM216.125 101.875C216.125 102.125 216.125 102.542 216.125 103.125C216.125 103.708 216.125 104.25 216.125 104.75C216.208 105.25 216.25 105.708 216.25 106.125C216.25 106.542 216.25 106.792 216.25 106.875L216.875 107.5C217.708 107 218.458 106.125 219.125 104.875C219.875 103.625 220.542 102.125 221.125 100.375C221.708 98.625 222.208 96.7917 222.625 94.875C223.125 92.875 223.542 90.9167 223.875 89C224.208 87.0833 224.458 85.3333 224.625 83.75C224.875 82.1667 225 80.875 225 79.875C225 79.5417 224.958 78.9167 224.875 78C224.875 77.0833 224.833 76.5417 224.75 76.375L224.125 75.125C222.125 76.7083 220.583 78.5833 219.5 80.75C218.417 82.9167 217.625 85.1667 217.125 87.5C216.625 89.8333 216.333 92.25 216.25 94.75C216.167 97.25 216.125 99.625 216.125 101.875ZM263.5 156.25C263.5 156 263.5 155.375 263.5 154.375C263.5 153.375 263.5 152.708 263.5 152.375C262.083 147.375 261.875 142.458 262.875 137.625C263.958 132.792 265.833 128.458 268.5 124.625C271.25 120.708 274.708 117.458 278.875 114.875C283.125 112.208 287.75 110.583 292.75 110H295C296.833 110 298.333 110.417 299.5 111.25C300.75 112 301.708 113 302.375 114.25C303.125 115.5 303.625 116.917 303.875 118.5C304.208 120.083 304.375 121.667 304.375 123.25C304.375 125.417 304.125 127.542 303.625 129.625C303.208 131.625 302.708 133.667 302.125 135.75C301.625 137.833 301.125 139.917 300.625 142C300.208 144 300 146.125 300 148.375V149.125C300.083 149.292 300.167 149.792 300.25 150.625C300.417 151.375 300.542 151.833 300.625 152C300.792 152 301.208 152.042 301.875 152.125C302.542 152.125 302.958 152.125 303.125 152.125C303.958 152.125 304.75 152.125 305.5 152.125C306.333 152.042 307.167 151.833 308 151.5L331.75 140.5C331.833 140.5 331.958 140.5 332.125 140.5C332.375 140.417 332.542 140.375 332.625 140.375C333.458 140.375 334.125 140.625 334.625 141.125C335.208 141.625 335.5 142.292 335.5 143.125C335.5 143.542 335.458 143.958 335.375 144.375C335.375 144.708 335.167 145.042 334.75 145.375C334.167 145.792 333.083 146.375 331.5 147.125C330 147.875 328.375 148.708 326.625 149.625C324.875 150.542 323.208 151.417 321.625 152.25C320.125 153.083 319.042 153.625 318.375 153.875C317.208 154.542 315.917 155.167 314.5 155.75C313.083 156.25 311.625 156.75 310.125 157.25C308.625 157.75 307.125 158.167 305.625 158.5C304.208 158.75 302.917 158.875 301.75 158.875C299.917 158.875 298.417 158.583 297.25 158C296.083 157.333 295.208 156.5 294.625 155.5C294.042 154.417 293.625 153.167 293.375 151.75C293.208 150.25 293.208 148.708 293.375 147.125C291.708 148.458 289.917 149.875 288 151.375C286.083 152.875 284.083 154.25 282 155.5C279.917 156.75 277.792 157.833 275.625 158.75C273.458 159.667 271.25 160.125 269 160.125C267.75 160.125 266.625 159.833 265.625 159.25C264.625 158.583 263.917 157.583 263.5 156.25ZM270.25 153.625C272.167 153.625 274.292 153.083 276.625 152C278.958 150.833 281.25 149.417 283.5 147.75C285.75 146.083 287.792 144.333 289.625 142.5C291.458 140.583 292.875 138.875 293.875 137.375C293.958 134.875 294.292 132.5 294.875 130.25C295.542 127.917 295.875 125.542 295.875 123.125C295.875 122.958 295.833 122.708 295.75 122.375C295.75 122.042 295.75 121.792 295.75 121.625C294.667 120.708 293.75 120.167 293 120C292.25 119.833 291.25 119.75 290 119.75C289.833 119.75 289.458 119.75 288.875 119.75C288.375 119.75 288.042 119.792 287.875 119.875C287.375 120.292 286.542 121.083 285.375 122.25C284.208 123.333 282.958 124.542 281.625 125.875C280.375 127.208 279.167 128.458 278 129.625C276.917 130.792 276.167 131.583 275.75 132C275.667 132 275.5 132.167 275.25 132.5C275 132.75 274.708 133.083 274.375 133.5C274.125 133.917 273.875 134.333 273.625 134.75C273.458 135.083 273.333 135.375 273.25 135.625L270.25 150.25V153.625Z"/>
<path d="M135 261.25L110.625 277.125H109.875C109.042 277.125 108.208 276.917 107.375 276.5C106.625 276.083 106.25 275.375 106.25 274.375C106.25 273.708 106.417 273.125 106.75 272.625C107.167 272.042 107.667 271.542 108.25 271.125C108.917 270.625 110.125 269.875 111.875 268.875C113.625 267.875 115.458 266.792 117.375 265.625C119.292 264.375 121.125 263.25 122.875 262.25C124.708 261.25 125.958 260.542 126.625 260.125C126.958 259.792 127.458 259.417 128.125 259C128.792 258.5 129.375 258.042 129.875 257.625C130.458 257.125 130.958 256.708 131.375 256.375C131.792 256.042 132 255.833 132 255.75L122.375 236.25C121.958 235.667 121.708 235.208 121.625 234.875C121.625 234.458 121.625 233.917 121.625 233.25C121.625 230.75 122.833 229.5 125.25 229.5C125.583 229.5 126.333 229.75 127.5 230.25C128.75 230.667 130.25 231.292 132 232.125C133.75 232.875 135.583 233.708 137.5 234.625C139.417 235.542 141.167 236.375 142.75 237.125C144.333 237.875 145.667 238.542 146.75 239.125C147.833 239.625 148.375 239.875 148.375 239.875L159.5 228.375C159.75 227.375 160.458 226.167 161.625 224.75C162.875 223.333 164.167 221.833 165.5 220.25C166.833 218.667 168 217.083 169 215.5C170 213.833 170.5 212.333 170.5 211V210.625L161.875 190.5C161.042 188.583 160.5 186.542 160.25 184.375C160.083 182.125 160 179.917 160 177.75C160 175.917 160.292 174.083 160.875 172.25C161.458 170.333 162.292 168.625 163.375 167.125C164.542 165.625 165.917 164.417 167.5 163.5C169.083 162.5 170.958 162 173.125 162C175.375 162 177.208 162.667 178.625 164C180.125 165.25 181.292 166.833 182.125 168.75C183.042 170.667 183.667 172.708 184 174.875C184.333 176.958 184.5 178.875 184.5 180.625C184.5 185.625 183.917 190.417 182.75 195C181.667 199.5 180.167 204.125 178.25 208.875V210.625C180.167 214.208 182.125 217.917 184.125 221.75C186.125 225.583 187.917 229.583 189.5 233.75C191.083 237.833 192.375 241.958 193.375 246.125C194.375 250.208 194.875 254.333 194.875 258.5C194.875 261.75 194.333 264.792 193.25 267.625C192.25 270.375 190.792 272.792 188.875 274.875C186.958 276.958 184.625 278.583 181.875 279.75C179.208 280.917 176.208 281.5 172.875 281.5C169.125 281.5 165.542 280.958 162.125 279.875C158.792 278.708 155.542 277.208 152.375 275.375C149.292 273.458 146.333 271.292 143.5 268.875C140.75 266.458 138.167 263.917 135.75 261.25H135ZM141.25 257C141.25 257.083 141.458 257.375 141.875 257.875C142.375 258.375 142.917 258.958 143.5 259.625C144.167 260.208 144.833 260.833 145.5 261.5C146.167 262.167 146.75 262.708 147.25 263.125C147.5 263.375 147.917 263.75 148.5 264.25C149.167 264.667 149.792 265.167 150.375 265.75C151.042 266.25 151.625 266.75 152.125 267.25C152.708 267.667 153.083 267.917 153.25 268C153.75 268.25 154.5 268.667 155.5 269.25C156.5 269.833 157.5 270.417 158.5 271C159.5 271.583 160.458 272.125 161.375 272.625C162.292 273.125 162.833 273.417 163 273.5C164.917 274.333 166.667 274.875 168.25 275.125C169.917 275.292 171.583 275.375 173.25 275.375C175.75 275.375 177.875 274.917 179.625 274C181.458 273 182.958 271.708 184.125 270.125C185.292 268.458 186.125 266.583 186.625 264.5C187.208 262.333 187.5 260.167 187.5 258C187.5 255.667 187.292 253.25 186.875 250.75C186.542 248.25 185.958 245.875 185.125 243.625L174.25 217.5L164.375 231.375L141.25 256.5V257ZM131.5 240.5C131.5 240.667 131.542 241 131.625 241.5C131.792 241.917 131.917 242.208 132 242.375C132.333 242.958 132.75 243.75 133.25 244.75C133.833 245.75 134.375 246.708 134.875 247.625C135.458 248.458 135.917 249.25 136.25 250C136.667 250.667 136.917 251 137 251H137.5C137.75 251 138.25 250.667 139 250C139.75 249.25 140.542 248.5 141.375 247.75C142.208 246.917 142.958 246.167 143.625 245.5C144.292 244.75 144.667 244.333 144.75 244.25L144.125 243.625L133.25 240.5H131.5ZM166.625 177.625C166.625 182.292 167.333 186.542 168.75 190.375C170.167 194.125 171.958 198.042 174.125 202.125C174.542 201.875 174.917 201.375 175.25 200.625C175.583 199.792 175.875 198.917 176.125 198C176.375 197 176.583 196.083 176.75 195.25C176.917 194.417 177.042 193.917 177.125 193.75C177.125 193.583 177.167 193.167 177.25 192.5C177.417 191.833 177.542 191.083 177.625 190.25C177.708 189.333 177.792 188.458 177.875 187.625C178.042 186.792 178.167 186.167 178.25 185.75V185.375C178.25 185.042 178.208 184 178.125 182.25C178.125 180.5 178 178.625 177.75 176.625C177.5 174.542 177.042 172.708 176.375 171.125C175.708 169.458 174.708 168.625 173.375 168.625C172.042 168.625 170.917 168.875 170 169.375C169.083 169.875 168.375 170.542 167.875 171.375C167.458 172.208 167.125 173.167 166.875 174.25C166.708 175.333 166.625 176.458 166.625 177.625ZM200.625 278.25C200.625 278 200.625 277.375 200.625 276.375C200.625 275.375 200.625 274.708 200.625 274.375C199.208 269.375 199 264.458 200 259.625C201.083 254.792 202.958 250.458 205.625 246.625C208.375 242.708 211.833 239.458 216 236.875C220.25 234.208 224.875 232.583 229.875 232H232.125C233.958 232 235.458 232.417 236.625 233.25C237.875 234 238.833 235 239.5 236.25C240.25 237.5 240.75 238.917 241 240.5C241.333 242.083 241.5 243.667 241.5 245.25C241.5 247.417 241.25 249.542 240.75 251.625C240.333 253.625 239.833 255.667 239.25 257.75C238.75 259.833 238.25 261.917 237.75 264C237.333 266 237.125 268.125 237.125 270.375V271.125C237.208 271.292 237.292 271.792 237.375 272.625C237.542 273.375 237.667 273.833 237.75 274C237.917 274 238.333 274.042 239 274.125C239.667 274.125 240.083 274.125 240.25 274.125C241.083 274.125 241.875 274.125 242.625 274.125C243.458 274.042 244.292 273.833 245.125 273.5L268.875 262.5C268.958 262.5 269.083 262.5 269.25 262.5C269.5 262.417 269.667 262.375 269.75 262.375C270.583 262.375 271.25 262.625 271.75 263.125C272.333 263.625 272.625 264.292 272.625 265.125C272.625 265.542 272.583 265.958 272.5 266.375C272.5 266.708 272.292 267.042 271.875 267.375C271.292 267.792 270.208 268.375 268.625 269.125C267.125 269.875 265.5 270.708 263.75 271.625C262 272.542 260.333 273.417 258.75 274.25C257.25 275.083 256.167 275.625 255.5 275.875C254.333 276.542 253.042 277.167 251.625 277.75C250.208 278.25 248.75 278.75 247.25 279.25C245.75 279.75 244.25 280.167 242.75 280.5C241.333 280.75 240.042 280.875 238.875 280.875C237.042 280.875 235.542 280.583 234.375 280C233.208 279.333 232.333 278.5 231.75 277.5C231.167 276.417 230.75 275.167 230.5 273.75C230.333 272.25 230.333 270.708 230.5 269.125C228.833 270.458 227.042 271.875 225.125 273.375C223.208 274.875 221.208 276.25 219.125 277.5C217.042 278.75 214.917 279.833 212.75 280.75C210.583 281.667 208.375 282.125 206.125 282.125C204.875 282.125 203.75 281.833 202.75 281.25C201.75 280.583 201.042 279.583 200.625 278.25ZM207.375 275.625C209.292 275.625 211.417 275.083 213.75 274C216.083 272.833 218.375 271.417 220.625 269.75C222.875 268.083 224.917 266.333 226.75 264.5C228.583 262.583 230 260.875 231 259.375C231.083 256.875 231.417 254.5 232 252.25C232.667 249.917 233 247.542 233 245.125C233 244.958 232.958 244.708 232.875 244.375C232.875 244.042 232.875 243.792 232.875 243.625C231.792 242.708 230.875 242.167 230.125 242C229.375 241.833 228.375 241.75 227.125 241.75C226.958 241.75 226.583 241.75 226 241.75C225.5 241.75 225.167 241.792 225 241.875C224.5 242.292 223.667 243.083 222.5 244.25C221.333 245.333 220.083 246.542 218.75 247.875C217.5 249.208 216.292 250.458 215.125 251.625C214.042 252.792 213.292 253.583 212.875 254C212.792 254 212.625 254.167 212.375 254.5C212.125 254.75 211.833 255.083 211.5 255.5C211.25 255.917 211 256.333 210.75 256.75C210.583 257.083 210.458 257.375 210.375 257.625L207.375 272.25V275.625ZM268.75 259.375C268.75 259.375 268.792 259.333 268.875 259.25C269.042 259.083 269.167 258.958 269.25 258.875C269.417 258.125 269.75 256.833 270.25 255C270.75 253.167 271.292 251.208 271.875 249.125C272.458 246.958 273 244.958 273.5 243.125C274.083 241.292 274.5 240.042 274.75 239.375C274.833 239.042 275.083 238.333 275.5 237.25C276 236.083 276.542 234.833 277.125 233.5C277.708 232.167 278.292 230.833 278.875 229.5C279.458 228.167 279.875 227.167 280.125 226.5C280.708 225.333 281.583 223.792 282.75 221.875C284 219.958 285.375 218.167 286.875 216.5C288.458 214.75 290.083 213.25 291.75 212C293.417 210.667 294.958 210 296.375 210C297.125 210 297.708 210.208 298.125 210.625C298.625 211.042 298.958 211.542 299.125 212.125C299.375 212.625 299.542 213.208 299.625 213.875C299.708 214.542 299.75 215.125 299.75 215.625C299.75 219.958 299.125 224.292 297.875 228.625C296.708 232.875 295.083 236.958 293 240.875C290.917 244.792 288.417 248.5 285.5 252C282.667 255.417 279.667 258.5 276.5 261.25C276.417 261.5 276.292 262 276.125 262.75C276.042 263.5 275.958 264.042 275.875 264.375V264.625C275.875 266.292 276.292 267.625 277.125 268.625C278.042 269.625 279.125 270.375 280.375 270.875C281.625 271.292 283 271.583 284.5 271.75C286.083 271.917 287.583 272 289 272C289.75 272 290.833 271.625 292.25 270.875C293.75 270.125 295.25 269.292 296.75 268.375C298.333 267.375 299.875 266.5 301.375 265.75C302.875 265 304 264.625 304.75 264.625C305.5 264.625 306.083 264.875 306.5 265.375C306.917 265.875 307.125 266.5 307.125 267.25C307.125 268.5 306.167 269.833 304.25 271.25C302.333 272.667 300.125 274 297.625 275.25C295.125 276.417 292.708 277.417 290.375 278.25C288.125 279.083 286.625 279.5 285.875 279.5C283.375 280 281.042 280.042 278.875 279.625C276.708 279.125 274.833 278.333 273.25 277.25C271.667 276.083 270.333 274.708 269.25 273.125C268.25 271.458 267.625 269.75 267.375 268L268.75 259.375ZM292.375 222.125C291.625 222.125 290.75 222.75 289.75 224C288.833 225.167 287.917 226.542 287 228.125C286.083 229.708 285.25 231.25 284.5 232.75C283.833 234.167 283.458 235.125 283.375 235.625C283.125 236.208 282.75 237.167 282.25 238.5C281.75 239.833 281.25 241.25 280.75 242.75C280.25 244.167 279.75 245.542 279.25 246.875C278.833 248.208 278.542 249.167 278.375 249.75H279C279 249.75 279.25 249.458 279.75 248.875C280.25 248.208 280.792 247.458 281.375 246.625C282.042 245.792 282.708 244.958 283.375 244.125C284.125 243.208 284.667 242.458 285 241.875C285.333 241.375 285.792 240.625 286.375 239.625C286.958 238.542 287.333 237.875 287.5 237.625C287.833 236.708 288.292 235.5 288.875 234C289.458 232.417 290 230.875 290.5 229.375C291 227.875 291.417 226.583 291.75 225.5C292.167 224.333 292.375 223.667 292.375 223.5V222.125ZM305.5 278.25C305.5 278 305.5 277.375 305.5 276.375C305.5 275.375 305.5 274.708 305.5 274.375C304.083 269.375 303.875 264.458 304.875 259.625C305.958 254.792 307.833 250.458 310.5 246.625C313.25 242.708 316.708 239.458 320.875 236.875C325.125 234.208 329.75 232.583 334.75 232H337C338.833 232 340.333 232.417 341.5 233.25C342.75 234 343.708 235 344.375 236.25C345.125 237.5 345.625 238.917 345.875 240.5C346.208 242.083 346.375 243.667 346.375 245.25C346.375 247.417 346.125 249.542 345.625 251.625C345.208 253.625 344.708 255.667 344.125 257.75C343.625 259.833 343.125 261.917 342.625 264C342.208 266 342 268.125 342 270.375V271.125C342.083 271.292 342.167 271.792 342.25 272.625C342.417 273.375 342.542 273.833 342.625 274C342.792 274 343.208 274.042 343.875 274.125C344.542 274.125 344.958 274.125 345.125 274.125C345.958 274.125 346.75 274.125 347.5 274.125C348.333 274.042 349.167 273.833 350 273.5L373.75 262.5C373.833 262.5 373.958 262.5 374.125 262.5C374.375 262.417 374.542 262.375 374.625 262.375C375.458 262.375 376.125 262.625 376.625 263.125C377.208 263.625 377.5 264.292 377.5 265.125C377.5 265.542 377.458 265.958 377.375 266.375C377.375 266.708 377.167 267.042 376.75 267.375C376.167 267.792 375.083 268.375 373.5 269.125C372 269.875 370.375 270.708 368.625 271.625C366.875 272.542 365.208 273.417 363.625 274.25C362.125 275.083 361.042 275.625 360.375 275.875C359.208 276.542 357.917 277.167 356.5 277.75C355.083 278.25 353.625 278.75 352.125 279.25C350.625 279.75 349.125 280.167 347.625 280.5C346.208 280.75 344.917 280.875 343.75 280.875C341.917 280.875 340.417 280.583 339.25 280C338.083 279.333 337.208 278.5 336.625 277.5C336.042 276.417 335.625 275.167 335.375 273.75C335.208 272.25 335.208 270.708 335.375 269.125C333.708 270.458 331.917 271.875 330 273.375C328.083 274.875 326.083 276.25 324 277.5C321.917 278.75 319.792 279.833 317.625 280.75C315.458 281.667 313.25 282.125 311 282.125C309.75 282.125 308.625 281.833 307.625 281.25C306.625 280.583 305.917 279.583 305.5 278.25ZM312.25 275.625C314.167 275.625 316.292 275.083 318.625 274C320.958 272.833 323.25 271.417 325.5 269.75C327.75 268.083 329.792 266.333 331.625 264.5C333.458 262.583 334.875 260.875 335.875 259.375C335.958 256.875 336.292 254.5 336.875 252.25C337.542 249.917 337.875 247.542 337.875 245.125C337.875 244.958 337.833 244.708 337.75 244.375C337.75 244.042 337.75 243.792 337.75 243.625C336.667 242.708 335.75 242.167 335 242C334.25 241.833 333.25 241.75 332 241.75C331.833 241.75 331.458 241.75 330.875 241.75C330.375 241.75 330.042 241.792 329.875 241.875C329.375 242.292 328.542 243.083 327.375 244.25C326.208 245.333 324.958 246.542 323.625 247.875C322.375 249.208 321.167 250.458 320 251.625C318.917 252.792 318.167 253.583 317.75 254C317.667 254 317.5 254.167 317.25 254.5C317 254.75 316.708 255.083 316.375 255.5C316.125 255.917 315.875 256.333 315.625 256.75C315.458 257.083 315.333 257.375 315.25 257.625L312.25 272.25V275.625ZM373.25 279C373.5 276.917 373.833 274.958 374.25 273.125C374.667 271.208 375.125 269.333 375.625 267.5C376.125 265.667 376.667 263.792 377.25 261.875C377.917 259.875 378.625 257.625 379.375 255.125V254.5C376.042 256.417 373.667 257.375 372.25 257.375C370.917 257.375 370.25 256.875 370.25 255.875C370.167 254.875 370.583 253.542 371.5 251.875C372.5 250.208 373.667 248.667 375 247.25C376.417 245.833 377.833 244.708 379.25 243.875C380.75 243.042 381.917 242.917 382.75 243.5C383.75 243.5 384.542 243.667 385.125 244C385.792 244.333 386.5 244.833 387.25 245.5C389.167 244 390.958 242.792 392.625 241.875C394.292 240.958 396.292 240.5 398.625 240.5C402.292 240.5 405.042 241.333 406.875 243C408.792 244.667 410.167 247.333 411 251C412.417 249.583 413.708 248.292 414.875 247.125C416.042 245.875 417.292 244.833 418.625 244C420.042 243.083 421.542 242.417 423.125 242C424.708 241.5 426.5 241.25 428.5 241.25C430.167 241.25 431.792 241.875 433.375 243.125C434.958 244.375 436.083 245.75 436.75 247.25C436.75 247.583 436.75 248.333 436.75 249.5C436.75 250.667 436.75 251.458 436.75 251.875C436.75 254.708 436.417 257.458 435.75 260.125C435.083 262.708 434.75 265.375 434.75 268.125C434.75 269.292 434.875 270.5 435.125 271.75C435.458 272.917 436.375 273.5 437.875 273.5C439.875 273.5 441.667 273.083 443.25 272.25C444.917 271.417 446.417 270.417 447.75 269.25C449.167 268 450.417 266.667 451.5 265.25C452.667 263.833 453.708 262.542 454.625 261.375C455.625 260.125 456.542 259.083 457.375 258.25C458.208 257.417 459.042 257 459.875 257C460.458 257 461.083 257.25 461.75 257.75C462.5 258.167 462.875 258.708 462.875 259.375C462.875 259.458 462.833 259.583 462.75 259.75C462.75 259.917 462.75 260.042 462.75 260.125C461.917 262.708 460.708 265.167 459.125 267.5C457.542 269.833 455.708 271.917 453.625 273.75C451.542 275.5 449.208 276.917 446.625 278C444.125 279 441.458 279.5 438.625 279.5C435.958 279.5 433.708 279.167 431.875 278.5C430.042 277.75 428.625 276.083 427.625 273.5C427.625 273.25 427.583 272.708 427.5 271.875C427.5 270.958 427.5 270.417 427.5 270.25C427.5 267.083 427.792 264.042 428.375 261.125C429.042 258.208 429.375 255.25 429.375 252.25C429.375 252 429.333 251.458 429.25 250.625C429.25 249.792 429.25 249.25 429.25 249C428.917 248.583 428.375 248.375 427.625 248.375C426.958 248.375 426.333 248.375 425.75 248.375C424 248.375 422.333 249 420.75 250.25C419.167 251.5 417.708 253.083 416.375 255C415.042 256.917 413.833 259.083 412.75 261.5C411.75 263.833 410.875 266.208 410.125 268.625C409.375 270.958 408.75 273.167 408.25 275.25C407.833 277.25 407.583 278.917 407.5 280.25L406.125 281.5H401.875C401.125 281.5 400.708 281.125 400.625 280.375C400.625 279.542 400.625 278.917 400.625 278.5C400.625 276.5 400.75 274.5 401 272.5C401.333 270.417 401.667 268.375 402 266.375C402.417 264.292 402.792 262.208 403.125 260.125C403.458 258.042 403.667 256 403.75 254C403.667 253.333 403.583 252.625 403.5 251.875C403.417 251.042 403.25 250.292 403 249.625C402.75 248.958 402.375 248.417 401.875 248C401.375 247.5 400.667 247.25 399.75 247.25C398.417 247.25 397.125 247.5 395.875 248C394.625 248.5 393.458 249.167 392.375 250C391.375 250.75 390.458 251.708 389.625 252.875C388.875 253.958 388.333 255.167 388 256.5L380.5 280.75L379.375 282C379.375 282 379.125 282 378.625 282C378.125 282.083 377.75 282.125 377.5 282.125C376.583 282.125 375.625 282.042 374.625 281.875C373.708 281.625 373.25 280.833 373.25 279.5V279Z"/>
</svg>
